<svg xmlns="http://www.w3.org/2000/svg" xmlns:svgjs="http://svgjs.com/svgjs" xmlns:xlink="http://www.w3.org/1999/xlink" width="288" height="288"><svg xmlns="http://www.w3.org/2000/svg" width="288" height="288" viewBox="0 0 48 48"><path fill="#721d15" d="M42 37v2a2.003 2.003 0 0 1-2 2H8a2.003 2.003 0 0 1-2-2v-2a2.003 2.003 0 0 1 2-2h32a2.003 2.003 0 0 1 2 2Zm-2-4H8a16.02 16.02 0 0 1 13-15.708V16a3.003 3.003 0 0 1 3-3 3.014 3.014 0 0 1 3 3v1.292A16.02 16.02 0 0 1 40 33ZM24 17c.338 0 .668.03 1 .05V16a.96.96 0 0 0-.287-.693A.977.977 0 0 0 24 15a1 1 0 0 0-1 1v1.05c.332-.02.663-.05 1-.05Z" class="color404a6b svgShape"/></svg></svg>